<?xml version="1.0" encoding="UTF-8" standalone="no"?>
<!-- translate-xy="150,135" -->

<svg
   xmlns:dc="http://purl.org/dc/elements/1.1/"
   xmlns:cc="http://creativecommons.org/ns#"
   xmlns:rdf="http://www.w3.org/1999/02/22-rdf-syntax-ns#"
   xmlns:svg="http://www.w3.org/2000/svg"
   xmlns="http://www.w3.org/2000/svg"
   xmlns:sodipodi="http://sodipodi.sourceforge.net/DTD/sodipodi-0.dtd"
   xmlns:inkscape="http://www.inkscape.org/namespaces/inkscape"
   width="300"
   height="300"
   viewBox="0 0 300 300"
   version="1.1"
   id="svg8"
   sodipodi:docname="misc-double-circle-logo-000000.svg"
   inkscape:version="0.92.3 (2405546, 2018-03-11)">
  <metadata
     id="metadata14">
    <rdf:RDF>
      <cc:Work
         rdf:about="">
        <dc:format>image/svg+xml</dc:format>
        <dc:type
           rdf:resource="http://purl.org/dc/dcmitype/StillImage" />
        <dc:title></dc:title>
      </cc:Work>
    </rdf:RDF>
  </metadata>
  <defs
     id="defs12" />
  <sodipodi:namedview
     pagecolor="#ffffff"
     bordercolor="#666666"
     borderopacity="1"
     objecttolerance="10"
     gridtolerance="10"
     guidetolerance="10"
     inkscape:pageopacity="0"
     inkscape:pageshadow="2"
     inkscape:window-width="1280"
     inkscape:window-height="737"
     id="namedview10"
     showgrid="false"
     inkscape:zoom="1.5733332"
     inkscape:cx="105.58279"
     inkscape:cy="172.35718"
     inkscape:window-x="-8"
     inkscape:window-y="-8"
     inkscape:window-maximized="1"
     inkscape:current-layer="svg8"
     inkscape:showpageshadow="false" />
  <circle
     style="fill:none;fill-opacity:1;stroke:#000000;stroke-width:2.5;stroke-miterlimit:4;stroke-dasharray:none;stroke-opacity:1"
     id="circle9"
     cy="150"
     cx="150"
     r="101.75" />
  <circle
     cx="150"
     cy="150"
     id="circle10"
     style="fill:none;fill-opacity:1;stroke:#000000;stroke-width:2.5;stroke-miterlimit:4;stroke-dasharray:none;stroke-opacity:1"
     r="140.25" />
<g transform="translate(49.3, 61.3) rotate(-45) "> <g
     aria-label="X"
     transform="scale(0.91076072,1.0979832)"
     style="font-style:normal;font-weight:normal;font-size:9.83330441px;line-height:1.25;font-family:sans-serif;letter-spacing:0px;word-spacing:0px;fill:#000000;fill-opacity:1;stroke:none;stroke-width:0.24583255"
     id="text826">
    <path
       d="M 9.1868426,8.8712833 5.164238,0.82607406 H 0.55185297 L 6.7823534,11.744572 0.38550466,22.844542 H 5.0432574 l 4.2040755,-8.181313 4.2191981,8.181313 h 4.597262 L 11.682067,11.744572 17.912568,0.82607406 H 13.28506 Z"
       style="font-style:normal;font-variant:normal;font-weight:bold;font-stretch:normal;font-size:30.97103119px;font-family:'Roboto Mono';-inkscape-font-specification:'Roboto Mono Bold';fill:#000000;fill-opacity:1;stroke-width:0.24583255"
       id="path815" />
  </g>

 </g><g transform="translate(65.9, 45.1) rotate(-35) "> <g
     aria-label="A"
     transform="matrix(0.93184692,0,0,1.0979832,-0.0696722,0)"
     style="font-style:normal;font-weight:normal;font-size:9.83330441px;line-height:1.25;font-family:sans-serif;letter-spacing:0px;word-spacing:0px;fill:#000000;fill-opacity:1;stroke:none;stroke-width:0.24583255"
     id="text826">
    <path
       d="m 12.433576,18.020441 1.376155,4.824101 h 4.314553 L 11.077164,0.82607406 H 7.5384821 L 0.34013693,22.844542 H 4.6698129 L 6.0610897,18.020441 Z M 7.044057,14.648107 9.2927006,6.6384133 11.480854,14.648107 Z"
       style="font-style:normal;font-variant:normal;font-weight:bold;font-stretch:normal;font-size:30.97103119px;font-family:'Roboto Mono';-inkscape-font-specification:'Roboto Mono Bold';fill:#000000;fill-opacity:1;stroke-width:0.24583255"
       id="path815"
       inkscape:connector-curvature="0"
       sodipodi:nodetypes="ccccccccccccc" />
  </g>

 </g><g transform="translate(85.7, 32.2) rotate(-25) "> <g
     aria-label="V"
     transform="scale(0.91970915,1.0873003)"
     style="font-style:normal;font-weight:normal;font-size:9.92991829px;line-height:1.25;font-family:sans-serif;letter-spacing:0px;word-spacing:0px;fill:#000000;fill-opacity:1;stroke:none;stroke-width:0.24824791"
     id="text826">
    <path
       d="m 7.132492,23.068993 h 3.955229 L 17.883386,0.83418934 H 13.515835 L 9.48425,15.76938 9.0872,17.204869 8.7206922,15.799922 4.7196493,0.83418934 H 0.33682754 Z"
       style="font-style:normal;font-variant:normal;font-weight:bold;font-stretch:normal;font-size:31.27532768px;font-family:'Roboto Mono';-inkscape-font-specification:'Roboto Mono Bold';fill:#000000;fill-opacity:1;stroke-width:0.24824791"
       id="path815" />
  </g>

 </g><g transform="translate(107, 22.8) rotate(-15) "> <g
     aria-label="I"
     transform="scale(1.0380132,0.96337888)"
     style="font-style:normal;font-weight:normal;font-size:11.20722389px;line-height:1.25;font-family:sans-serif;letter-spacing:0px;word-spacing:0px;fill:#000000;fill-opacity:1;stroke:none;stroke-width:0.28018054"
     id="text826">
    <path
       d="M 0.84366954,0.94149479 V 4.6126596 H 5.9623915 V 22.382476 H 0.84366954 v 3.65393 H 15.493858 v -3.65393 H 10.237252 V 4.6126596 h 5.256606 V 0.94149479 Z"
       style="font-style:normal;font-variant:normal;font-weight:bold;font-stretch:normal;font-size:35.29833603px;font-family:'Roboto Mono';-inkscape-font-specification:'Roboto Mono Bold';fill:#000000;fill-opacity:1;stroke-width:0.28018054"
       id="path815"
       inkscape:connector-curvature="0"
       sodipodi:nodetypes="ccccccccccccc" />
  </g>

 </g><g transform="translate(130.1, 17.2) rotate(-5) "> <g
     aria-label="E"
     transform="scale(0.97300881,1.0277399)"
     style="font-style:normal;font-weight:normal;font-size:10.50538445px;line-height:1.25;font-family:sans-serif;letter-spacing:0px;word-spacing:0px;fill:#000000;fill-opacity:1;stroke:none;stroke-width:0.26263455"
     id="text826">
    <path
       d="M 14.845085,13.985181 V 10.608543 H 5.1513887 V 4.3399526 H 16.412233 V 0.88253406 H 0.91847447 V 24.405905 H 16.476858 V 20.980799 H 5.1513887 v -6.995618 z"
       style="font-style:normal;font-variant:normal;font-weight:bold;font-stretch:normal;font-size:33.08781815px;font-family:'Roboto Mono';-inkscape-font-specification:'Roboto Mono Bold';fill:#000000;fill-opacity:1;stroke-width:0.26263455"
       id="path815" />
  </g>

 </g><g transform="translate(153.7, 15.9) rotate(5) "> <g
     aria-label="R"
     transform="scale(0.94374805,1.0596048)"
     style="font-style:normal;font-weight:normal;font-size:10.18946171px;line-height:1.25;font-family:sans-serif;letter-spacing:0px;word-spacing:0px;fill:#000000;fill-opacity:1;stroke:none;stroke-width:0.25473648"
     id="text826">
    <path
       d="m 8.6500265,14.990609 4.3250045,8.68135 h 4.372016 v -0.203714 l -4.889136,-9.480536 q 0.940219,-0.423098 1.692393,-1.002899 0.767845,-0.579802 1.331976,-1.363317 0.532791,-0.752175 0.830527,-1.7237339 0.297735,-0.971559 0.297735,-2.1625024 0,-1.7080634 -0.595471,-2.9930286 Q 15.435269,3.4572629 14.354018,2.6110663 13.257097,1.7491995 11.752747,1.3104309 10.248398,0.85599196 8.4149719,0.85599196 H 0.95590577 V 23.671959 H 5.0458559 v -8.68135 z M 5.0458559,11.652833 V 4.178097 h 3.369116 q 0.9402184,0 1.6767231,0.2350546 0.736504,0.2350546 1.269295,0.6738232 0.564131,0.4701093 0.846196,1.2066137 0.297736,0.7208341 0.297736,1.6610525 0,0.814856 -0.250725,1.4730089 -0.235054,0.6424821 -0.689493,1.0969211 -0.532791,0.548461 -1.331976,0.846197 -0.7835158,0.282065 -1.7864155,0.282065 z"
       style="font-style:normal;font-variant:normal;font-weight:bold;font-stretch:normal;font-size:32.0927887px;font-family:'Roboto Mono';-inkscape-font-specification:'Roboto Mono Bold';fill:#000000;fill-opacity:1;stroke-width:0.25473648"
       id="path815" />
  </g>

 </g><g transform="translate(176.6, 18.7) rotate(15) "> <g
     id="g817"
     transform="matrix(0.77981651,0,0,0.77981651,1.8853211,2.8761468)">
    <path
       id="path10"
       d="M 15.25,13.0625 A 6.6875,6.8125 0 0 1 8.5625,19.875 6.6875,6.8125 0 0 1 1.875,13.0625 6.6875,6.8125 0 0 1 8.5625,6.25 6.6875,6.8125 0 0 1 15.25,13.0625 Z"
       style="fill:#000000;fill-opacity:1;fill-rule:evenodd;stroke-width:1.06926107"
       inkscape:connector-curvature="0" />
  </g>

 </g><g transform="translate(199, 25.1) rotate(25) "> <g
     aria-label="M"
     transform="scale(0.96574472,1.0354703)"
     style="font-style:normal;font-weight:normal;font-size:10.42695618px;line-height:1.25;font-family:sans-serif;letter-spacing:0px;word-spacing:0px;fill:#000000;fill-opacity:1;stroke:none;stroke-width:0.26067385"
     id="text826">
    <path
       d="M 6.0517508,0.87594706 H 0.85623404 V 24.223701 H 4.7368361 V 16.815279 L 4.528374,6.5525302 7.527021,16.783208 H 9.643713 L 12.979107,6.135606 12.770644,16.815279 v 7.408422 h 3.880602 V 0.87594706 H 11.45573 L 8.6014026,10.256741 Z"
       style="font-style:normal;font-variant:normal;font-weight:bold;font-stretch:normal;font-size:32.84079742px;font-family:'Roboto Mono';-inkscape-font-specification:'Roboto Mono Bold';fill:#000000;fill-opacity:1;stroke-width:0.26067385"
       id="path815" />
  </g>

 </g><g transform="translate(219.9, 35.7) rotate(35) "> <g
     aria-label="O"
     transform="scale(0.94275316,1.060723)"
     style="font-style:normal;font-weight:normal;font-size:9.94822502px;line-height:1.25;font-family:sans-serif;letter-spacing:0px;word-spacing:0px;fill:#000000;fill-opacity:1;stroke:none;stroke-width:0.24870555"
     id="text826">
    <path
       d="m 17.171996,13.841038 v -3.09046 Q 17.156697,9.2971433 16.896608,7.9814027 16.63652,6.6656621 16.131643,5.5335133 15.657364,4.5084596 14.984195,3.6516982 14.311025,2.7796376 13.423665,2.1676653 12.536305,1.5403936 11.404156,1.1885095 10.287307,0.83662538 8.9868655,0.83662538 q -1.3004413,0 -2.3866922,0.35188412 Q 5.5139223,1.5250943 4.6418617,2.152366 3.7545018,2.7949369 3.0813322,3.6822969 2.4234619,4.5543575 1.9644827,5.6253091 1.4902041,6.7421587 1.2454151,8.0425999 1.0159255,9.3430412 1.0006262,10.750578 v 3.09046 q 0.015299,1.346339 0.2294896,2.585583 0.2141903,1.223945 0.642571,2.294897 0.4589793,1.147448 1.1474482,2.080706 0.6884689,0.917958 1.5605295,1.575829 0.9026592,0.64257 2.0042095,0.994455 1.1015502,0.351884 2.4172908,0.351884 1.2545432,0 2.3254952,-0.321286 1.070951,-0.321285 1.958311,-0.902659 0.948558,-0.642571 1.682924,-1.56053 0.734367,-0.933257 1.223945,-2.050107 0.474279,-1.10155 0.719068,-2.371393 0.244789,-1.285142 0.260088,-2.677379 z m -4.039018,-3.121059 v 3.121059 q 0,0.826163 -0.0918,1.621727 -0.0765,0.780265 -0.260088,1.453434 -0.21419,0.841462 -0.581374,1.514632 -0.351884,0.673169 -0.87206,1.132149 -0.44368,0.413081 -1.025054,0.627271 -0.5813737,0.214191 -1.3004412,0.214191 -0.7496661,0 -1.3310399,-0.22949 Q 7.1050505,19.945462 6.6766698,19.532381 6.2023913,19.088701 5.8658065,18.400232 5.5292217,17.696464 5.3456299,16.885601 5.1773375,16.197132 5.100841,15.432166 5.0396438,14.651901 5.0396438,13.841038 v -3.121059 q 0,-0.841462 0.076496,-1.637026 Q 5.1926369,8.2873889 5.3609293,7.5836207 5.5598203,6.7268594 5.9117044,6.0536898 6.2788878,5.3805202 6.8143636,4.9215409 7.227445,4.5696568 7.7629208,4.3860651 q 0.5354758,-0.198891 1.2239447,-0.198891 0.7037682,0 1.2545435,0.2141903 0.566074,0.198891 1.009754,0.5507751 0.535476,0.4589793 0.902659,1.1321489 0.382483,0.6731696 0.611973,1.4993323 0.198891,0.7037682 0.275387,1.4993323 0.0918,0.795564 0.0918,1.637026 z"
       style="font-style:normal;font-variant:normal;font-weight:bold;font-stretch:normal;font-size:31.33298492px;font-family:'Roboto Mono';-inkscape-font-specification:'Roboto Mono Bold';fill:#000000;fill-opacity:1;stroke-width:0.24870555"
       id="path815" />
  </g>

 </g><g transform="translate(238.6, 49.5) rotate(45) "> <g
     aria-label="D"
     transform="scale(0.95087813,1.0516595)"
     style="font-style:normal;font-weight:normal;font-size:10.26644421px;line-height:1.25;font-family:sans-serif;letter-spacing:0px;word-spacing:0px;fill:#000000;fill-opacity:1;stroke:none;stroke-width:0.25666103"
     id="text826">
    <path
       d="M 0.93534977,23.850801 H 6.9350545 q 1.563081,0 2.9209089,-0.378928 1.3736166,-0.378929 2.4946136,-1.08942 0.9789,-0.615759 1.799912,-1.515715 0.821012,-0.915745 1.420983,-2.005165 0.615759,-1.168363 0.947321,-2.573557 0.331563,-1.420983 0.331563,-2.984064 v -1.863066 q 0,-1.6420246 -0.36314,-3.0945847 Q 16.139865,6.8937412 15.476739,5.6938003 14.876769,4.6201689 14.024179,3.7360019 13.187378,2.8518348 12.113747,2.2518644 10.99275,1.5887391 9.6507104,1.2255991 8.3086711,0.86245906 6.7613789,0.86245906 H 0.93534977 Z M 5.087777,4.2096628 h 1.6736019 q 0.8683783,0 1.5946583,0.205253 0.7420688,0.1894644 1.3420392,0.5368157 0.8052236,0.4578722 1.3894056,1.199941 0.59997,0.72628 0.96311,1.6578131 0.299985,0.7736462 0.442084,1.6893906 0.157887,0.8999558 0.173675,1.9104318 v 1.894644 q -0.01579,1.057843 -0.173675,1.973587 -0.142099,0.915745 -0.426295,1.673602 -0.347351,0.899956 -0.868378,1.57887 -0.505239,0.678914 -1.168364,1.120997 -0.6315478,0.426295 -1.4051939,0.663125 -0.7736462,0.221042 -1.6893906,0.221042 H 5.087777 Z"
       style="font-style:normal;font-variant:normal;font-weight:bold;font-stretch:normal;font-size:32.33525085px;font-family:'Roboto Mono';-inkscape-font-specification:'Roboto Mono Bold';fill:#000000;fill-opacity:1;stroke-width:0.25666103"
       id="path815" />
  </g>

 </g> <g transform="translate(74, 227.5) rotate(40) "> <g
     aria-label="E"
     transform="scale(0.97300881,1.0277399)"
     style="font-style:normal;font-weight:normal;font-size:10.50538445px;line-height:1.25;font-family:sans-serif;letter-spacing:0px;word-spacing:0px;fill:#000000;fill-opacity:1;stroke:none;stroke-width:0.26263455"
     id="text826">
    <path
       d="M 14.845085,13.985181 V 10.608543 H 5.1513887 V 4.3399526 H 16.412233 V 0.88253406 H 0.91847447 V 24.405905 H 16.476858 V 20.980799 H 5.1513887 v -6.995618 z"
       style="font-style:normal;font-variant:normal;font-weight:bold;font-stretch:normal;font-size:33.08781815px;font-family:'Roboto Mono';-inkscape-font-specification:'Roboto Mono Bold';fill:#000000;fill-opacity:1;stroke-width:0.26263455"
       id="path815" />
  </g>

 </g><g transform="translate(89, 239.5) rotate(30) "> <g
     aria-label="S"
     transform="scale(0.94266038,1.0608274)"
     style="font-style:normal;font-weight:normal;font-size:9.9470911px;line-height:1.25;font-family:sans-serif;letter-spacing:0px;word-spacing:0px;fill:#000000;fill-opacity:1;stroke:none;stroke-width:0.24867721"
     id="text826">
    <path
       d="m 13.117123,17.589656 q 0,0.657795 -0.275356,1.19321 -0.275357,0.535415 -0.764879,0.902556 -0.504819,0.367142 -1.19321,0.56601 -0.68839,0.198869 -1.545054,0.198869 -0.9790442,0 -1.8051127,-0.229464 Q 6.7227403,19.991374 6.1261353,19.517149 5.5295302,19.027627 5.1776862,18.293344 4.8411397,17.559061 4.7952471,16.549422 H 0.84847512 q 0.0152976,1.667434 0.65779528,2.937132 0.6577954,1.254401 1.7745177,2.187552 1.1932101,0.963747 2.7994545,1.468566 1.6062444,0.50482 3.2583814,0.50482 1.621542,0 3.028918,-0.397737 1.422674,-0.397736 2.462908,-1.177912 1.055532,-0.780176 1.652137,-1.912196 0.611903,-1.13202 0.611903,-2.600586 0,-1.667435 -0.749581,-2.921835 -0.749581,-1.269698 -2.003981,-2.20285 Q 13.438372,11.776581 12.352244,11.302357 11.281415,10.828132 10.103502,10.491586 9.1091606,10.216229 8.2524969,9.8949805 7.4111308,9.558434 6.7839306,9.1301022 6.1567304,8.7323655 5.8048864,8.1969507 5.4683399,7.6462383 5.4683399,6.9425503 q 0,-0.6577953 0.2600587,-1.1932101 Q 5.9884572,5.1986278 6.4779793,4.8008911 6.9675014,4.418452 7.6558918,4.2042861 8.3442823,3.9901202 9.1856484,3.9901202 q 0.9484486,0 1.6674346,0.2753561 0.718986,0.2600587 1.223805,0.7342832 0.474225,0.4742245 0.734283,1.1320199 0.275357,0.6577953 0.321249,1.4532687 h 3.916177 q 0,-1.4991614 -0.596605,-2.7535618 Q 15.870685,3.5770859 14.83045,2.6745295 13.790216,1.7719732 12.352244,1.2824511 10.929571,0.77763139 9.2468386,0.77763139 q -1.6062443,0 -3.0136204,0.42833181 Q 4.8258422,1.6342951 3.7856077,2.445066 2.7300757,3.2405395 2.1181731,4.3878569 1.521568,5.5351743 1.521568,6.9425503 q 0,1.269698 0.4895221,2.32523 0.4895221,1.0402347 1.407376,1.8816007 0.9025564,0.841366 2.2640398,1.529756 1.3614833,0.673093 3.0748106,1.147318 1.1167223,0.305951 1.9274935,0.673093 0.826068,0.367141 1.376781,0.810771 0.535415,0.474224 0.795473,1.040234 0.260059,0.550713 0.260059,1.239103 z"
       style="font-style:normal;font-variant:normal;font-weight:bold;font-stretch:normal;font-size:31.32941437px;font-family:'Roboto Mono';-inkscape-font-specification:'Roboto Mono Bold';fill:#000000;fill-opacity:1;stroke-width:0.24867721"
       id="path815" />
  </g>

 </g><g transform="translate(105.3, 248.6) rotate(20) "> <g
     aria-label="T"
     transform="scale(0.8981495,1.1134004)"
     style="font-style:normal;font-weight:normal;font-size:9.69714355px;line-height:1.25;font-family:sans-serif;letter-spacing:0px;word-spacing:0px;fill:#000000;fill-opacity:1;stroke:none;stroke-width:0.24242853"
     id="text826">
    <path
       d="M 18.02607,4.0060552 V 0.8146363 H 0.80135575 V 4.0060552 H 7.4377175 V 22.528215 H 11.315142 V 4.0060552 Z"
       style="font-style:normal;font-variant:normal;font-weight:bold;font-stretch:normal;font-size:30.5421772px;font-family:'Roboto Mono';-inkscape-font-specification:'Roboto Mono Bold';fill:#000000;fill-opacity:1;stroke-width:0.24242853"
       id="path815" />
  </g>

 </g><g transform="translate(123.2, 254.8) rotate(10) "> <g
     aria-label="."
     transform="scale(0.91076074,1.0979832)"
     style="font-style:normal;font-weight:normal;font-size:11.21598625px;line-height:1.25;font-family:sans-serif;letter-spacing:0px;word-spacing:0px;fill:#000000;fill-opacity:1;stroke:none;stroke-width:0.28039959"
     id="text826">
    <path
       d="m 5.8702706,19.895552 q 0,1.259177 0.8279515,2.121626 0.8452005,0.845201 2.3113647,0.845201 1.4661642,0 2.3113642,-0.845201 0.86245,-0.8452 0.86245,-2.121626 0,-1.293674 -0.845201,-2.156123 -0.827951,-0.879699 -2.3286132,-0.879699 -1.5006622,0 -2.3286137,0.879699 -0.8107025,0.879698 -0.8107025,2.156123 z"
       style="font-style:normal;font-variant:normal;font-weight:bold;font-stretch:normal;font-size:35.32593155px;font-family:'Roboto Mono';-inkscape-font-specification:'Roboto Mono Bold';fill:#000000;fill-opacity:1;stroke-width:0.28039959"
       id="path815" />
  </g>

 </g><g transform="translate(160.4, 257.8) rotate(-10) "> <g
     aria-label="2"
     transform="scale(0.9567264,1.0452309)"
     style="font-style:normal;font-weight:normal;font-size:10.19787502px;line-height:1.25;font-family:sans-serif;letter-spacing:0px;word-spacing:0px;fill:#000000;fill-opacity:1;stroke:none;stroke-width:0.2549468"
     id="text826">
    <path
       d="M 16.731751,23.997496 V 20.735381 H 6.3964941 L 11.085784,15.74811 q 1.050777,-1.097827 1.929039,-2.117238 0.893944,-1.035094 1.536957,-2.023138 0.62733,-1.003728 0.972362,-2.0231387 0.360714,-1.0194108 0.360714,-2.1329211 0,-1.4585416 -0.470497,-2.6661513 Q 14.943862,3.56223 14.049917,2.6839683 13.140289,1.82139 11.807213,1.3352094 10.474137,0.84902891 8.7646638,0.84902891 q -1.803573,0 -3.2777978,0.58027999 Q 4.0126411,2.0095889 2.9932303,3.0289997 1.942453,4.0327272 1.3778563,5.3814861 0.81325954,6.7145618 0.81325954,8.2201531 H 4.8909027 q 0,-0.9566778 0.2352487,-1.7094735 Q 5.3770833,5.757884 5.8475806,5.240337 6.3180778,4.7541564 7.0081405,4.4875413 7.7138865,4.2209262 8.6548811,4.2209262 q 0.7214291,0 1.3173924,0.2509319 0.5959635,0.2352486 1.0350945,0.6743794 0.423447,0.4548141 0.643012,1.0821438 0.235249,0.6116465 0.235249,1.4114918 0,0.5489136 -0.172516,1.1291935 -0.156832,0.5645968 -0.53323,1.2076098 -0.376398,0.6586966 -0.988044,1.4585416 -0.6116466,0.784162 -1.5055915,1.756523 l -7.4024907,8.014137 v 2.791618 z"
       style="font-style:normal;font-variant:normal;font-weight:bold;font-stretch:normal;font-size:32.11928177px;font-family:'Roboto Mono';-inkscape-font-specification:'Roboto Mono Bold';fill:#000000;fill-opacity:1;stroke-width:0.2549468"
       id="path815" />
  </g>

 </g><g transform="translate(179, 254.3) rotate(-20) "> <g
     aria-label="0"
     transform="scale(0.99473084,1.0052971)"
     style="font-style:normal;font-weight:normal;font-size:10.47004795px;line-height:1.25;font-family:sans-serif;letter-spacing:0px;word-spacing:0px;fill:#000000;fill-opacity:1;stroke:none;stroke-width:0.26175112"
     id="text826">
    <path
       d="m 16.169179,15.64994 v -5.571228 q 0,-2.2703563 -0.53136,-3.9932507 -0.53136,-1.7389962 -1.513571,-2.9144288 -0.98221,-1.1593308 -2.39917,-1.755098 -1.41696,-0.61186905 -3.2042619,-0.61186905 -1.755098,0 -3.1720578,0.61186905 Q 3.9479002,2.0117017 2.9656894,3.1710325 1.9673768,4.3464651 1.4360168,6.0854613 0.92075868,7.8083557 0.92075868,10.078712 v 5.571228 q 0,2.270357 0.53135992,4.009353 0.53136,1.722894 1.5296726,2.882225 0.9822108,1.191534 2.3991707,1.787302 1.4169599,0.595767 3.1720579,0.595767 1.7873012,0 3.1881592,-0.595767 1.41696,-0.611869 2.399171,-1.787302 0.982211,-1.159331 1.497469,-2.882225 0.53136,-1.738996 0.53136,-4.009353 z M 5.107231,14.007555 q 0,-0.483054 0,-0.772887 0,-0.289833 0,-0.982211 V 9.3702319 q 0,-1.3686544 0.2254254,-2.3830688 0.2254255,-1.0144145 0.70848,-1.6423854 0.4186472,-0.5796654 1.0305162,-0.8694981 0.6279709,-0.2898327 1.4491635,-0.2898327 0.7567854,0 1.3525526,0.2415273 0.5957673,0.2254254 0.9983123,0.7084799 0.499157,0.5796654 0.756786,1.5135708 0.273731,0.9178036 0.338138,2.2059489 z m 6.875476,2.318662 q 0,1.384756 -0.241528,2.415272 -0.225425,1.014415 -0.708479,1.674589 -0.418648,0.579666 -1.0466185,0.869498 -0.6118691,0.273731 -1.4330617,0.273731 -0.8372945,0 -1.4813672,-0.305934 Q 6.4436818,20.931336 6.0250346,20.303365 5.6224891,19.739802 5.3970637,18.918609 5.1877401,18.081315 5.1233328,16.986391 l 6.8593742,-5.120377 q 0,0.45085 0,0.80509 0,0.338138 0,0.805091 z"
       style="font-style:normal;font-variant:normal;font-weight:bold;font-stretch:normal;font-size:32.97652054px;font-family:'Roboto Mono';-inkscape-font-specification:'Roboto Mono Bold';fill:#000000;fill-opacity:1;stroke-width:0.26175112"
       id="path815" />
  </g>

 </g><g transform="translate(196.8, 247.8) rotate(-30) "> <g
     aria-label="2"
     transform="scale(0.9567264,1.0452309)"
     style="font-style:normal;font-weight:normal;font-size:10.19787502px;line-height:1.25;font-family:sans-serif;letter-spacing:0px;word-spacing:0px;fill:#000000;fill-opacity:1;stroke:none;stroke-width:0.2549468"
     id="text826">
    <path
       d="M 16.731751,23.997496 V 20.735381 H 6.3964941 L 11.085784,15.74811 q 1.050777,-1.097827 1.929039,-2.117238 0.893944,-1.035094 1.536957,-2.023138 0.62733,-1.003728 0.972362,-2.0231387 0.360714,-1.0194108 0.360714,-2.1329211 0,-1.4585416 -0.470497,-2.6661513 Q 14.943862,3.56223 14.049917,2.6839683 13.140289,1.82139 11.807213,1.3352094 10.474137,0.84902891 8.7646638,0.84902891 q -1.803573,0 -3.2777978,0.58027999 Q 4.0126411,2.0095889 2.9932303,3.0289997 1.942453,4.0327272 1.3778563,5.3814861 0.81325954,6.7145618 0.81325954,8.2201531 H 4.8909027 q 0,-0.9566778 0.2352487,-1.7094735 Q 5.3770833,5.757884 5.8475806,5.240337 6.3180778,4.7541564 7.0081405,4.4875413 7.7138865,4.2209262 8.6548811,4.2209262 q 0.7214291,0 1.3173924,0.2509319 0.5959635,0.2352486 1.0350945,0.6743794 0.423447,0.4548141 0.643012,1.0821438 0.235249,0.6116465 0.235249,1.4114918 0,0.5489136 -0.172516,1.1291935 -0.156832,0.5645968 -0.53323,1.2076098 -0.376398,0.6586966 -0.988044,1.4585416 -0.6116466,0.784162 -1.5055915,1.756523 l -7.4024907,8.014137 v 2.791618 z"
       style="font-style:normal;font-variant:normal;font-weight:bold;font-stretch:normal;font-size:32.11928177px;font-family:'Roboto Mono';-inkscape-font-specification:'Roboto Mono Bold';fill:#000000;fill-opacity:1;stroke-width:0.2549468"
       id="path815" />
  </g>

 </g><g transform="translate(213, 238) rotate(-40) "> <g
     aria-label="0"
     transform="scale(0.99473084,1.0052971)"
     style="font-style:normal;font-weight:normal;font-size:10.47004795px;line-height:1.25;font-family:sans-serif;letter-spacing:0px;word-spacing:0px;fill:#000000;fill-opacity:1;stroke:none;stroke-width:0.26175112"
     id="text826">
    <path
       d="m 16.169179,15.64994 v -5.571228 q 0,-2.2703563 -0.53136,-3.9932507 -0.53136,-1.7389962 -1.513571,-2.9144288 -0.98221,-1.1593308 -2.39917,-1.755098 -1.41696,-0.61186905 -3.2042619,-0.61186905 -1.755098,0 -3.1720578,0.61186905 Q 3.9479002,2.0117017 2.9656894,3.1710325 1.9673768,4.3464651 1.4360168,6.0854613 0.92075868,7.8083557 0.92075868,10.078712 v 5.571228 q 0,2.270357 0.53135992,4.009353 0.53136,1.722894 1.5296726,2.882225 0.9822108,1.191534 2.3991707,1.787302 1.4169599,0.595767 3.1720579,0.595767 1.7873012,0 3.1881592,-0.595767 1.41696,-0.611869 2.399171,-1.787302 0.982211,-1.159331 1.497469,-2.882225 0.53136,-1.738996 0.53136,-4.009353 z M 5.107231,14.007555 q 0,-0.483054 0,-0.772887 0,-0.289833 0,-0.982211 V 9.3702319 q 0,-1.3686544 0.2254254,-2.3830688 0.2254255,-1.0144145 0.70848,-1.6423854 0.4186472,-0.5796654 1.0305162,-0.8694981 0.6279709,-0.2898327 1.4491635,-0.2898327 0.7567854,0 1.3525526,0.2415273 0.5957673,0.2254254 0.9983123,0.7084799 0.499157,0.5796654 0.756786,1.5135708 0.273731,0.9178036 0.338138,2.2059489 z m 6.875476,2.318662 q 0,1.384756 -0.241528,2.415272 -0.225425,1.014415 -0.708479,1.674589 -0.418648,0.579666 -1.0466185,0.869498 -0.6118691,0.273731 -1.4330617,0.273731 -0.8372945,0 -1.4813672,-0.305934 Q 6.4436818,20.931336 6.0250346,20.303365 5.6224891,19.739802 5.3970637,18.918609 5.1877401,18.081315 5.1233328,16.986391 l 6.8593742,-5.120377 q 0,0.45085 0,0.80509 0,0.338138 0,0.805091 z"
       style="font-style:normal;font-variant:normal;font-weight:bold;font-stretch:normal;font-size:32.97652054px;font-family:'Roboto Mono';-inkscape-font-specification:'Roboto Mono Bold';fill:#000000;fill-opacity:1;stroke-width:0.26175112"
       id="path815" />
  </g>

 </g> <g transform="translate(94, 135) scale(0.9, 1) "> <g
     aria-label="J"
     transform="scale(0.96817447,1.0328717)"
     style="font-style:normal;font-weight:normal;font-size:10.31990242px;line-height:1.25;font-family:sans-serif;letter-spacing:0px;word-spacing:0px;fill:#000000;fill-opacity:1;stroke:none;stroke-width:0.25799745"
     id="text826">
    <path
       d="M 12.374086,0.87815216 V 16.90777 q 0,0.841158 -0.269806,1.58709 -0.253934,0.745933 -0.730062,1.285544 -0.460256,0.539611 -1.142705,0.857029 -0.682449,0.301547 -1.4918653,0.301547 -0.9681254,0 -1.6664454,-0.269805 Q 6.3748823,20.399369 5.9304969,19.859758 5.5495951,19.399502 5.3432733,18.732924 5.1528224,18.066346 5.1528224,17.209317 H 0.97877353 q 0.0476128,1.761671 0.61896537,3.094827 0.5713527,1.317285 1.6029618,2.190185 0.9998672,0.904642 2.3965071,1.364898 1.4125109,0.444386 3.1424399,0.444386 1.6347033,0 3.0472143,-0.539611 1.428382,-0.539611 2.475862,-1.523607 1.04748,-0.983997 1.650574,-2.333024 0.603095,-1.364898 0.634837,-2.999601 L 16.532264,0.87815216 Z"
       style="font-style:normal;font-variant:normal;font-weight:bold;font-stretch:normal;font-size:32.50362015px;font-family:'Roboto Mono';-inkscape-font-specification:'Roboto Mono Bold';fill:#000000;fill-opacity:1;stroke-width:0.25799745"
       id="path815" />
  </g>

 </g><g transform="translate(110.2, 135) scale(0.9, 1) "> <g
     aria-label="O"
     transform="scale(0.94275316,1.060723)"
     style="font-style:normal;font-weight:normal;font-size:9.94822502px;line-height:1.25;font-family:sans-serif;letter-spacing:0px;word-spacing:0px;fill:#000000;fill-opacity:1;stroke:none;stroke-width:0.24870555"
     id="text826">
    <path
       d="m 17.171996,13.841038 v -3.09046 Q 17.156697,9.2971433 16.896608,7.9814027 16.63652,6.6656621 16.131643,5.5335133 15.657364,4.5084596 14.984195,3.6516982 14.311025,2.7796376 13.423665,2.1676653 12.536305,1.5403936 11.404156,1.1885095 10.287307,0.83662538 8.9868655,0.83662538 q -1.3004413,0 -2.3866922,0.35188412 Q 5.5139223,1.5250943 4.6418617,2.152366 3.7545018,2.7949369 3.0813322,3.6822969 2.4234619,4.5543575 1.9644827,5.6253091 1.4902041,6.7421587 1.2454151,8.0425999 1.0159255,9.3430412 1.0006262,10.750578 v 3.09046 q 0.015299,1.346339 0.2294896,2.585583 0.2141903,1.223945 0.642571,2.294897 0.4589793,1.147448 1.1474482,2.080706 0.6884689,0.917958 1.5605295,1.575829 0.9026592,0.64257 2.0042095,0.994455 1.1015502,0.351884 2.4172908,0.351884 1.2545432,0 2.3254952,-0.321286 1.070951,-0.321285 1.958311,-0.902659 0.948558,-0.642571 1.682924,-1.56053 0.734367,-0.933257 1.223945,-2.050107 0.474279,-1.10155 0.719068,-2.371393 0.244789,-1.285142 0.260088,-2.677379 z m -4.039018,-3.121059 v 3.121059 q 0,0.826163 -0.0918,1.621727 -0.0765,0.780265 -0.260088,1.453434 -0.21419,0.841462 -0.581374,1.514632 -0.351884,0.673169 -0.87206,1.132149 -0.44368,0.413081 -1.025054,0.627271 -0.5813737,0.214191 -1.3004412,0.214191 -0.7496661,0 -1.3310399,-0.22949 Q 7.1050505,19.945462 6.6766698,19.532381 6.2023913,19.088701 5.8658065,18.400232 5.5292217,17.696464 5.3456299,16.885601 5.1773375,16.197132 5.100841,15.432166 5.0396438,14.651901 5.0396438,13.841038 v -3.121059 q 0,-0.841462 0.076496,-1.637026 Q 5.1926369,8.2873889 5.3609293,7.5836207 5.5598203,6.7268594 5.9117044,6.0536898 6.2788878,5.3805202 6.8143636,4.9215409 7.227445,4.5696568 7.7629208,4.3860651 q 0.5354758,-0.198891 1.2239447,-0.198891 0.7037682,0 1.2545435,0.2141903 0.566074,0.198891 1.009754,0.5507751 0.535476,0.4589793 0.902659,1.1321489 0.382483,0.6731696 0.611973,1.4993323 0.198891,0.7037682 0.275387,1.4993323 0.0918,0.795564 0.0918,1.637026 z"
       style="font-style:normal;font-variant:normal;font-weight:bold;font-stretch:normal;font-size:31.33298492px;font-family:'Roboto Mono';-inkscape-font-specification:'Roboto Mono Bold';fill:#000000;fill-opacity:1;stroke-width:0.24870555"
       id="path815" />
  </g>

 </g><g transform="translate(126.4, 135) scale(0.9, 1) "> <g
     aria-label="U"
     transform="scale(0.98284181,1.0174577)"
     style="font-style:normal;font-weight:normal;font-size:10.47624207px;line-height:1.25;font-family:sans-serif;letter-spacing:0px;word-spacing:0px;fill:#000000;fill-opacity:1;stroke:none;stroke-width:0.26190597"
     id="text826">
    <path
       d="M 16.425205,0.89145231 H 12.268478 L 12.252367,16.503345 q -0.01611,1.127794 -0.257782,2.030029 -0.24167,0.886124 -0.72501,1.498355 -0.451118,0.59612 -1.143905,0.918347 -0.6927883,0.306115 -1.5789122,0.306115 -0.8377899,0 -1.4822437,-0.290004 Q 6.4200604,20.660072 5.9850541,20.080063 5.5178251,19.467832 5.2761549,18.565597 5.0505961,17.663362 5.0344848,16.503345 L 5.0022621,0.89145231 H 0.82942396 L 0.81331262,16.503345 q 0,1.901138 0.54778568,3.431716 0.5638971,1.514466 1.5789117,2.561704 1.0150147,1.047237 2.432813,1.611134 1.4177983,0.563897 3.1739348,0.563897 1.8528042,0 3.3028252,-0.563897 1.466133,-0.563897 2.481147,-1.627246 1.015015,-1.047237 1.562801,-2.561703 0.547785,-1.514467 0.547785,-3.415605 z"
       style="font-style:normal;font-variant:normal;font-weight:bold;font-stretch:normal;font-size:32.99603271px;font-family:'Roboto Mono';-inkscape-font-specification:'Roboto Mono Bold';fill:#000000;fill-opacity:1;stroke-width:0.26190597"
       id="path815" />
  </g>

 </g><g transform="translate(142.6, 135) scale(0.9, 1) "> <g
     aria-label="R"
     transform="scale(0.94374805,1.0596048)"
     style="font-style:normal;font-weight:normal;font-size:10.18946171px;line-height:1.25;font-family:sans-serif;letter-spacing:0px;word-spacing:0px;fill:#000000;fill-opacity:1;stroke:none;stroke-width:0.25473648"
     id="text826">
    <path
       d="m 8.6500265,14.990609 4.3250045,8.68135 h 4.372016 v -0.203714 l -4.889136,-9.480536 q 0.940219,-0.423098 1.692393,-1.002899 0.767845,-0.579802 1.331976,-1.363317 0.532791,-0.752175 0.830527,-1.7237339 0.297735,-0.971559 0.297735,-2.1625024 0,-1.7080634 -0.595471,-2.9930286 Q 15.435269,3.4572629 14.354018,2.6110663 13.257097,1.7491995 11.752747,1.3104309 10.248398,0.85599196 8.4149719,0.85599196 H 0.95590577 V 23.671959 H 5.0458559 v -8.68135 z M 5.0458559,11.652833 V 4.178097 h 3.369116 q 0.9402184,0 1.6767231,0.2350546 0.736504,0.2350546 1.269295,0.6738232 0.564131,0.4701093 0.846196,1.2066137 0.297736,0.7208341 0.297736,1.6610525 0,0.814856 -0.250725,1.4730089 -0.235054,0.6424821 -0.689493,1.0969211 -0.532791,0.548461 -1.331976,0.846197 -0.7835158,0.282065 -1.7864155,0.282065 z"
       style="font-style:normal;font-variant:normal;font-weight:bold;font-stretch:normal;font-size:32.0927887px;font-family:'Roboto Mono';-inkscape-font-specification:'Roboto Mono Bold';fill:#000000;fill-opacity:1;stroke-width:0.25473648"
       id="path815" />
  </g>

 </g><g transform="translate(158.8, 135) scale(0.9, 1) "> <g
     aria-label="N"
     transform="scale(0.9730088,1.0277399)"
     style="font-style:normal;font-weight:normal;font-size:10.50538445px;line-height:1.25;font-family:sans-serif;letter-spacing:0px;word-spacing:0px;fill:#000000;fill-opacity:1;stroke:none;stroke-width:0.26263455"
     id="text826">
    <path
       d="M 16.544306,24.405903 V 0.88253215 H 12.311392 L 12.279079,16.50554 5.2349931,0.88253215 H 0.98592273 V 24.405903 H 5.2349931 L 5.2511493,8.7344265 12.327548,24.405903 Z"
       style="font-style:normal;font-variant:normal;font-weight:bold;font-stretch:normal;font-size:33.08781815px;font-family:'Roboto Mono';-inkscape-font-specification:'Roboto Mono Bold';fill:#000000;fill-opacity:1;stroke-width:0.26263455"
       id="path815" />
    <path
       id="path818"
       style="font-style:normal;font-variant:normal;font-weight:bold;font-stretch:normal;font-size:33.08781815px;font-family:'Roboto Mono';-inkscape-font-specification:'Roboto Mono Bold';fill:#000000;fill-opacity:1;stroke-width:0.26263455"
       d="M 16.544306,24.405903 V 0.88253215 H 12.311392 L 12.279079,16.50554 5.2349931,0.88253215 H 0.98592273 V 24.405903 H 5.2349931 L 5.2511493,8.7344265 12.327548,24.405903 Z" />
  </g>

 </g><g transform="translate(175, 135) scale(0.9, 1) "> <g
     aria-label="A"
     transform="matrix(0.93184692,0,0,1.0979832,-0.0696722,0)"
     style="font-style:normal;font-weight:normal;font-size:9.83330441px;line-height:1.25;font-family:sans-serif;letter-spacing:0px;word-spacing:0px;fill:#000000;fill-opacity:1;stroke:none;stroke-width:0.24583255"
     id="text826">
    <path
       d="m 12.433576,18.020441 1.376155,4.824101 h 4.314553 L 11.077164,0.82607406 H 7.5384821 L 0.34013693,22.844542 H 4.6698129 L 6.0610897,18.020441 Z M 7.044057,14.648107 9.2927006,6.6384133 11.480854,14.648107 Z"
       style="font-style:normal;font-variant:normal;font-weight:bold;font-stretch:normal;font-size:30.97103119px;font-family:'Roboto Mono';-inkscape-font-specification:'Roboto Mono Bold';fill:#000000;fill-opacity:1;stroke-width:0.24583255"
       id="path815"
       inkscape:connector-curvature="0"
       sodipodi:nodetypes="ccccccccccccc" />
  </g>

 </g><g transform="translate(191.2, 135) scale(0.9, 1) "> <g
     aria-label="L"
     transform="scale(0.97991699,1.0204946)"
     style="font-style:normal;font-weight:normal;font-size:10.57997036px;line-height:1.25;font-family:sans-serif;letter-spacing:0px;word-spacing:0px;fill:#000000;fill-opacity:1;stroke:none;stroke-width:0.26449919"
     id="text826">
    <path
       d="M 5.1955173,21.129758 V 0.88879988 H 0.93255025 V 24.579182 H 16.389874 v -3.449424 z"
       style="font-style:normal;font-variant:normal;font-weight:bold;font-stretch:normal;font-size:33.32273483px;font-family:'Roboto Mono';-inkscape-font-specification:'Roboto Mono Bold';fill:#000000;fill-opacity:1;stroke-width:0.26449919"
       id="path815" />
  </g>

 </g> </svg>
